<?xml version="1.0" encoding="utf-8"?>
<!-- Generator: Adobe Illustrator 22.0.1, SVG Export Plug-In . SVG Version: 6.00 Build 0)  -->
<svg version="1.1" id="Ebene_1" xmlns="http://www.w3.org/2000/svg" xmlns:xlink="http://www.w3.org/1999/xlink" x="0px" y="0px"
	 viewBox="0 0 423 90" style="enable-background:new 0 0 423 90;" xml:space="preserve">
<style type="text/css">
	.st0{fill:#FFFFFF;}
</style>
<g>
	<g id="CONTENTshift_2016_1_">
		<g>
			<path class="st0" d="M1.9,25.3c0-14,10.4-24.6,24.7-24.6c6.3,0,11,2.1,14.1,4.3L38,13.5c-2.3-1.6-6.6-3.8-11.4-3.8
				c-8.6,0-14.8,6.7-14.8,15.6c0,9.1,6.2,15.6,14.8,15.6c5.1,0,9.6-2.3,11.8-3.9l2.7,8.3c-2.8,2.1-7.6,4.5-14.5,4.5
				C11.8,49.9,1.9,39.3,1.9,25.3z"/>
			<path class="st0" d="M45.2,25.3c0-13.8,10.1-24.6,24.7-24.6s24.7,10.8,24.7,24.6c0,14-10.1,24.6-24.7,24.6
				C55.2,49.9,45.2,39.3,45.2,25.3z M55.1,25.3c0,9.1,6.2,15.6,14.7,15.6s14.7-6.6,14.7-15.6c0-8.9-6.2-15.6-14.7-15.6
				S55.1,16.4,55.1,25.3z"/>
			<path class="st0" d="M110.4,16.8V49H101V1.6h9.7L131,34.1V1.6h9.4V49h-9.5L110.4,16.8z"/>
			<path class="st0" d="M157.3,10.2h-11.1V1.6h31.7v8.6h-11V49h-9.6L157.3,10.2L157.3,10.2z"/>
			<path class="st0" d="M183.9,1.6h24.4v8.6h-14.8v10.6h12.7v8.5h-12.7v11.2h15.4V49h-25L183.9,1.6L183.9,1.6z"/>
			<path class="st0" d="M225.8,16.8V49h-9.4V1.6h9.7l20.3,32.5V1.6h9.4V49h-9.5L225.8,16.8z"/>
			<path class="st0" d="M272.8,10.2h-11.1V1.6h31.7v8.6h-11V49h-9.6V10.2z"/>
		</g>
		<g>
			<path class="st0" d="M300.8,40.6c1.5,2.7,3.9,5.3,8.6,5.3c3.4,0,6.3-2,6.3-5.5c0-7.9-17.3-5.2-17.3-16.9c0-5.8,4.8-9.3,11-9.3
				c6.4,0,9.7,4,10.6,6.6l-3.8,2.2c-0.9-1.9-2.7-4.4-7.1-4.4c-3.2,0-5.7,1.8-5.7,4.8c0,7.7,17.3,4.8,17.3,16.8
				c0,6.1-5,10.2-11.7,10.2c-7.2,0-10.4-4.1-12-7.3L300.8,40.6z"/>
			<path class="st0" d="M356.5,27.9v21.5h-5.2V27.7c0-5.5-3.5-8.8-8.1-8.8c-5.3,0-9,3.9-9,9.6v20.9H329V1.6h5.2V20
				c1.7-3.1,5.5-5.8,10.2-5.8C352.4,14.2,356.5,20.1,356.5,27.9z"/>
			<path class="st0" d="M369.4,2.6c2,0,3.6,1.6,3.6,3.6s-1.6,3.6-3.6,3.6s-3.6-1.6-3.6-3.6C365.9,4.2,367.4,2.6,369.4,2.6z
				 M366.9,15h5.2v34.4h-5.2V15z"/>
			<path class="st0" d="M383.8,19.5H380v-4.4h3.8v-1.8c0-8.7,5.2-11.4,10.8-11.4c1.1,0,2.2,0.1,2.2,0.1v4.6c0,0-0.9-0.1-1.7-0.1
				c-3.9,0-6,2.1-6,6.9v1.8h7.3v4.4h-7.3v30h-5.3V19.5z"/>
			<path class="st0" d="M406.2,7.8h5.2V15h7.5v4.4h-7.5v17.7c0,6.4,1.9,7.9,6.3,7.9c0.7,0,1.5-0.1,1.5-0.1v4.6c0,0-1.4,0.2-3.2,0.2
				c-6.9,0-9.9-4.5-9.9-12.2v-18h-4v-4.4h4V7.8H406.2z"/>
		</g>
	</g>
	<g>
		<path class="st0" d="M7.9,66.9H4.2v-1.4h9v1.4H9.5v12.2H7.9V66.9z"/>
		<path class="st0" d="M23.3,72.8v6.4h-1.5v-6.4c0-1.6-1-2.6-2.4-2.6c-1.6,0-2.7,1.2-2.7,2.8v6.2h-1.5V65h1.5v5.4
			c0.5-0.9,1.6-1.7,3-1.7C22,68.7,23.3,70.5,23.3,72.8z"/>
		<path class="st0" d="M30.1,68.7c3,0,4.8,2.1,4.8,5.2c0,0.1,0,0.3,0,0.5h-8.2c0,2.3,1.5,3.6,3.7,3.6c1.7,0,2.7-0.9,3.2-1.6l1,0.7
			c-0.6,1-1.9,2.2-4.2,2.2c-3.1,0-5.2-2.2-5.2-5.3C25.2,70.9,27.4,68.7,30.1,68.7z M33.3,73.2c-0.1-2.1-1.6-3.2-3.2-3.2
			c-1.7,0-3.1,1.3-3.3,3.2H33.3z"/>
		<path class="st0" d="M52.6,77.8c-0.5,0.5-2.1,1.6-4.4,1.6c-4,0-6.9-3-6.9-7.1c0-4,3-7.1,6.9-7.1c2.1,0,3.5,0.8,4.2,1.4L51.9,68
			c-0.5-0.4-1.9-1.3-3.7-1.3c-3,0-5.3,2.4-5.3,5.6c0,3.2,2.2,5.6,5.3,5.6c2.1,0,3.4-1.1,3.9-1.5L52.6,77.8z"/>
		<path class="st0" d="M59.3,68.7c3.1,0,5.3,2.3,5.3,5.3s-2.3,5.3-5.3,5.3c-3,0-5.3-2.2-5.3-5.3C54,71,56.3,68.7,59.3,68.7z
			 M59.3,78c2.2,0,3.8-1.7,3.8-3.9c0-2.2-1.6-3.9-3.8-3.9c-2.2,0-3.7,1.7-3.7,3.9C55.6,76.4,57.1,78,59.3,78z"/>
		<path class="st0" d="M74.7,72.8v6.4h-1.5v-6.4c0-1.6-1-2.6-2.4-2.6c-1.6,0-2.6,1.2-2.6,2.8v6.2h-1.5V69h1.5v1.5
			c0.5-0.9,1.6-1.7,3-1.7C73.5,68.7,74.7,70.5,74.7,72.8z"/>
		<path class="st0" d="M77.4,66.9h1.5V69h2.2v1.3h-2.2v5.2c0,1.9,0.5,2.3,1.9,2.3c0.2,0,0.4,0,0.4,0v1.4c0,0-0.4,0.1-0.9,0.1
			c-2,0-2.9-1.3-2.9-3.6v-5.4h-1.2V69h1.2V66.9z"/>
		<path class="st0" d="M87.3,68.7c3,0,4.8,2.1,4.8,5.2c0,0.1,0,0.3,0,0.5H84c0,2.3,1.5,3.6,3.7,3.6c1.7,0,2.7-0.9,3.2-1.6l1,0.7
			c-0.6,1-1.9,2.2-4.2,2.2c-3.1,0-5.2-2.2-5.2-5.3C82.4,70.9,84.6,68.7,87.3,68.7z M90.6,73.2c-0.1-2.1-1.6-3.2-3.2-3.2
			c-1.7,0-3.1,1.3-3.3,3.2H90.6z"/>
		<path class="st0" d="M102.2,72.8v6.4h-1.5v-6.4c0-1.6-1-2.6-2.4-2.6c-1.6,0-2.6,1.2-2.6,2.8v6.2h-1.5V69h1.5v1.5
			c0.5-0.9,1.6-1.7,3-1.7C101,68.7,102.2,70.5,102.2,72.8z"/>
		<path class="st0" d="M104.9,66.9h1.5V69h2.2v1.3h-2.2v5.2c0,1.9,0.5,2.3,1.9,2.3c0.2,0,0.4,0,0.4,0v1.4c0,0-0.4,0.1-0.9,0.1
			c-2,0-2.9-1.3-2.9-3.6v-5.4h-1.2V69h1.2V66.9z"/>
		<path class="st0" d="M115.7,65.5h1.6v13.7h-1.6V65.5z"/>
		<path class="st0" d="M128.3,72.8v6.4h-1.5v-6.4c0-1.6-1-2.6-2.4-2.6c-1.6,0-2.6,1.2-2.6,2.8v6.2h-1.5V69h1.5v1.5
			c0.5-0.9,1.6-1.7,3-1.7C127.1,68.7,128.3,70.5,128.3,72.8z"/>
		<path class="st0" d="M140.2,79.1h-1.5v-1.6c-0.3,0.4-1.3,1.9-3.5,1.9c-2.9,0-5-2.2-5-5.3c0-3.1,2-5.4,4.8-5.4
			c2.1,0,3.3,1.4,3.6,1.9V65h1.6V79.1z M135.3,70.1c-2,0-3.4,1.6-3.4,4c0,2.4,1.5,3.9,3.5,3.9c2.1,0,3.4-1.8,3.4-3.9
			C138.7,71.6,137.2,70.1,135.3,70.1z"/>
		<path class="st0" d="M142.8,75.3V69h1.5v6.4c0,1.6,1,2.6,2.4,2.6c1.6,0,2.6-1.2,2.6-2.8V69h1.6v10.2h-1.5v-1.5
			c-0.5,0.9-1.6,1.7-3,1.7C144,79.4,142.8,77.6,142.8,75.3z"/>
		<path class="st0" d="M153.8,76.5c0.4,0.8,1.2,1.6,2.5,1.6c1,0,1.9-0.6,1.9-1.6c0-2.3-5.1-1.5-5.1-5c0-1.7,1.4-2.8,3.3-2.8
			c1.9,0,2.9,1.2,3.1,2l-1.1,0.6c-0.3-0.5-0.8-1.3-2.1-1.3c-0.9,0-1.7,0.5-1.7,1.4c0,2.3,5.1,1.4,5.1,5c0,1.8-1.5,3-3.5,3
			c-2.1,0-3.1-1.2-3.5-2.2L153.8,76.5z"/>
		<path class="st0" d="M161.8,66.9h1.5V69h2.2v1.3h-2.2v5.2c0,1.9,0.5,2.3,1.9,2.3c0.2,0,0.4,0,0.4,0v1.4c0,0-0.4,0.1-0.9,0.1
			c-2,0-2.9-1.3-2.9-3.6v-5.4h-1.2V69h1.2V66.9z"/>
		<path class="st0" d="M172,70.3c-2.3,0-3,1.8-3,4v4.9h-1.5V69h1.5v1.7c0.4-1,1.5-2,3-2V70.3z"/>
		<path class="st0" d="M175.7,82.6l1.5-3.6L173.1,69h1.7l3.2,8.2l3.1-8.2h1.6l-5.5,13.7H175.7z"/>
		<path class="st0" d="M191.3,74.7l-1.6,4.4h-1.6l5.1-13.7h1.6l5.1,13.7h-1.6l-1.6-4.4H191.3z M194,67.2l-2.2,6.1h4.4L194,67.2z"/>
		<path class="st0" d="M209.1,71.4c-0.4-0.4-1.5-1.3-3-1.3c-2.1,0-3.6,1.7-3.6,3.9c0,2.2,1.6,3.9,3.7,3.9c1.6,0,2.6-0.9,3-1.3
			l0.5,1.3c-0.4,0.4-1.7,1.4-3.6,1.4c-3,0-5.2-2.3-5.2-5.3s2.2-5.3,5.2-5.3c1.9,0,3,0.9,3.6,1.4L209.1,71.4z"/>
		<path class="st0" d="M219.1,71.4c-0.4-0.4-1.5-1.3-3-1.3c-2.1,0-3.6,1.7-3.6,3.9c0,2.2,1.6,3.9,3.7,3.9c1.6,0,2.6-0.9,3-1.3
			l0.5,1.3c-0.4,0.4-1.7,1.4-3.6,1.4c-3,0-5.2-2.3-5.2-5.3s2.2-5.3,5.2-5.3c1.9,0,3,0.9,3.6,1.4L219.1,71.4z"/>
		<path class="st0" d="M225.8,68.7c3,0,4.8,2.1,4.8,5.2c0,0.1,0,0.3,0,0.5h-8.2c0,2.3,1.5,3.6,3.7,3.6c1.7,0,2.7-0.9,3.2-1.6l1,0.7
			c-0.6,1-1.9,2.2-4.2,2.2c-3.1,0-5.2-2.2-5.2-5.3C220.9,70.9,223.1,68.7,225.8,68.7z M229,73.2c-0.1-2.1-1.6-3.2-3.2-3.2
			c-1.7,0-3.1,1.3-3.3,3.2H229z"/>
		<path class="st0" d="M232.6,65h1.5v14.1h-1.5V65z"/>
		<path class="st0" d="M241,68.7c3,0,4.8,2.1,4.8,5.2c0,0.1,0,0.3,0,0.5h-8.2c0,2.3,1.5,3.6,3.7,3.6c1.7,0,2.7-0.9,3.2-1.6l1,0.7
			c-0.6,1-1.9,2.2-4.2,2.2c-3.1,0-5.2-2.2-5.2-5.3C236.1,70.9,238.3,68.7,241,68.7z M244.3,73.2c-0.1-2.1-1.6-3.2-3.2-3.2
			c-1.7,0-3.1,1.3-3.3,3.2H244.3z"/>
		<path class="st0" d="M252.4,70.3c-2.3,0-3,1.8-3,4v4.9h-1.5V69h1.5v1.7c0.4-1,1.5-2,3-2V70.3z"/>
		<path class="st0" d="M257.3,72.7c1.3,0,2.3,0.5,2.7,0.9v-1.3c0-1.4-1-2.2-2.5-2.2c-1.3,0-2.3,0.4-3,0.9l-0.6-1.1
			c0.7-0.4,2-1.1,3.8-1.1c2.8,0,3.9,1.5,3.9,3.7v6.7h-1.3l-0.2-0.9c-0.5,0.6-1.4,1.1-2.8,1.1c-2.2,0-3.9-1.4-3.9-3.4
			C253.4,74.1,255.1,72.7,257.3,72.7z M257.6,78.1c1.5,0,2.5-0.9,2.5-2.1c0-1.3-1-2.1-2.5-2.1c-1.5,0-2.5,0.9-2.5,2.1
			C255,77.2,256,78.1,257.6,78.1z"/>
		<path class="st0" d="M264.2,66.9h1.5V69h2.2v1.3h-2.2v5.2c0,1.9,0.5,2.3,1.9,2.3c0.2,0,0.4,0,0.4,0v1.4c0,0-0.4,0.1-0.9,0.1
			c-2,0-2.9-1.3-2.9-3.6v-5.4H263V69h1.2V66.9z"/>
		<path class="st0" d="M274.5,68.7c3.1,0,5.3,2.3,5.3,5.3s-2.3,5.3-5.3,5.3c-3,0-5.3-2.2-5.3-5.3C269.1,71,271.4,68.7,274.5,68.7z
			 M274.4,78c2.2,0,3.8-1.7,3.8-3.9c0-2.2-1.6-3.9-3.8-3.9s-3.7,1.7-3.7,3.9C270.7,76.4,272.3,78,274.4,78z"/>
		<path class="st0" d="M286.3,70.3c-2.3,0-3,1.8-3,4v4.9h-1.5V69h1.5v1.7c0.4-1,1.5-2,3-2V70.3z"/>
	</g>
	<g>
		<path class="st0" d="M341,87.5c0-8.1,13.9-12.7,13.9-20.2c0-3-1.9-5.2-5.3-5.2c-3.3,0-4.8,2.1-5.5,4.5l-3-0.8
			c0.5-2.4,2.7-6.8,8.5-6.8c5.6,0,8.7,3.6,8.7,8.3c0,8.7-13.1,13.4-13.4,18.5h13.9v3H341V87.5z"/>
		<path class="st0" d="M373.2,89.3c-7.3,0-9.4-5.6-9.4-15.2c0-9.6,2.1-15.2,9.4-15.2s9.4,5.6,9.4,15.2
			C382.6,83.7,380.5,89.3,373.2,89.3z M373.2,86.1c5.5,0,6-5.1,6-12s-0.5-12-6-12s-6,5.2-6,12C367.2,81,367.7,86.1,373.2,86.1z"/>
		<path class="st0" d="M387.6,61.5l5.1-2h2.8v29.2H392V62.9l-3.4,1.4L387.6,61.5z"/>
		<path class="st0" d="M402,80.5c0-4.4,3.1-6.7,5-7.4c-1.5-0.8-4-2.9-4-6.3c0-4.7,3.7-7.8,8.6-7.8c5,0,8.6,3.1,8.6,7.8
			c0,3.4-2.5,5.6-4,6.3c1.8,0.8,5,3,5,7.4c0,5.2-4,8.7-9.6,8.7C405.9,89.3,402,85.8,402,80.5z M405.4,80.5c0,3,2.2,5.6,6.1,5.6
			c4,0,6.1-2.7,6.1-5.6c0-3.6-2.6-5.7-6.1-5.7C408.1,74.8,405.4,76.9,405.4,80.5z M416.7,66.9c0-2.6-1.8-4.8-5.2-4.8
			c-3.4,0-5.2,2.2-5.2,4.8s2.2,4.8,5.2,4.8C414.6,71.7,416.7,69.5,416.7,66.9z"/>
	</g>
</g>
</svg>
