<?xml version="1.0" standalone="no"?>
<!-- Generator: Adobe Fireworks 10, Export SVG Extension by Aaron Beall (http://fireworks.abeall.com) . Version: 0.6.1  -->
<!DOCTYPE svg PUBLIC "-//W3C//DTD SVG 1.1//EN" "http://www.w3.org/Graphics/SVG/1.1/DTD/svg11.dtd">
<svg id="Untitled-Page%201" viewBox="0 0 247 76" style="background-color:#47576c00" version="1.1"
	xmlns="http://www.w3.org/2000/svg" xmlns:xlink="http://www.w3.org/1999/xlink" xml:space="preserve"
	x="0px" y="0px" width="247px" height="76px"
>
	<g id="Layer_1_1">
		<path d="M -0.0775 45.3401 L 4.6991 44.078 L 4.6991 11.6332 L -0.0775 10.3706 L -0.0775 2.131 L 27.1622 2.131 C 39.2507 2.131 45.9658 6.4356 45.9658 15.1223 C 45.9658 21.5815 43.8017 25.0715 36.6392 27.0001 L 36.6392 27.3732 C 44.8466 28.338 48.3546 32.1982 48.3546 39.6232 C 48.3546 48.6805 42.534 53.5803 28.2804 53.5803 L -0.0775 53.5803 L -0.0775 45.3401 ZM 24.5488 23.3634 C 27.7579 23.3634 29.6232 21.8059 29.6232 17.3501 C 29.6232 13.044 27.8321 11.4102 24.4745 11.4102 L 21.4158 11.4102 L 21.4158 23.3634 L 24.5488 23.3634 ZM 24.9218 44.3005 C 28.7287 44.3005 30.594 42.4437 30.594 37.9899 C 30.594 33.5351 28.5802 31.6045 24.7734 31.6045 L 21.4158 31.6045 L 21.4158 44.3005 L 24.9218 44.3005 Z" fill="#47576c"/>
		<path d="M 50.2922 45.3391 L 55.144 44.078 L 55.144 11.708 L 50.3684 10.3711 L 50.3684 2.131 L 78.1276 2.131 C 92.7553 2.131 98.7986 8.1442 98.7986 17.6475 C 98.7986 24.404 95.3668 27.5967 90.3665 29.6001 L 90.3665 29.8974 L 98.948 44.3743 L 102.3808 45.3391 L 102.3808 53.5803 L 85.5157 53.5803 L 74.77 33.7576 L 72.2328 33.7576 L 72.2328 44.3005 L 76.0396 45.3391 L 76.0396 53.5803 L 50.2922 53.5803 L 50.2922 45.3391 ZM 76.1881 24.9228 C 80.2176 24.9228 81.7098 22.4724 81.7098 17.7951 C 81.7098 13.5638 79.7703 11.7819 75.5904 11.7819 L 72.2328 11.7819 L 72.2328 24.9228 L 76.1881 24.9228 Z" fill="#47576c"/>
		<path d="M 108.0549 23.3585 L 110.5189 22.7697 L 110.5189 5.0506 L 108.0881 4.4949 L 108.0881 2.1407 L 119.1609 2.1407 C 124.5176 2.1407 127.3762 4.0698 127.3762 8.0257 C 127.3762 10.7398 126.1603 12.668 122.2177 13.42 L 122.2177 13.6163 C 126.8508 14.14 128.4602 15.9374 128.4602 19.3691 C 128.4602 23.2614 125.8322 25.7118 119.7859 25.7118 L 108.0549 25.7118 L 108.0549 23.3585 ZM 118.3738 12.3736 C 120.2469 12.3736 121.5273 11.6211 121.5273 8.8423 C 121.5273 5.8677 120.3778 4.985 118.3074 4.985 L 116.3678 4.985 L 116.3678 12.3736 L 118.3738 12.3736 ZM 118.6687 22.8679 C 121.0673 22.8679 122.2509 21.7564 122.2509 18.9125 C 122.2509 15.9705 121.0341 14.9561 118.7019 14.9561 L 116.3678 14.9561 L 116.3678 22.8679 L 118.6687 22.8679 Z" fill="#47576c"/>
		<path d="M 131.7465 21.0704 L 131.7465 10.8696 L 129.7093 10.3133 L 129.7093 8.0908 L 136.6423 7.4053 L 137.1013 7.6657 L 137.1013 19.9268 C 137.1013 21.6252 137.6286 22.4103 139.4354 22.4103 C 140.7509 22.4103 141.5068 22.0508 142.1631 21.7904 L 142.1631 10.8696 L 140.2899 10.3133 L 140.2899 8.0908 L 147.0598 7.4053 L 147.5852 7.6657 L 147.5852 22.5404 L 149.6224 23.0641 L 149.6224 25.2211 L 142.9189 26.0392 L 142.3925 25.8109 L 142.3925 23.685 L 142.1963 23.685 C 140.9794 25.0579 139.2391 26.1043 136.8073 26.1043 C 133.2251 26.1043 131.7465 24.2087 131.7465 21.0704 L 131.7465 21.0704 Z" fill="#47576c"/>
		<path d="M 151.5932 25.0579 L 151.3315 20.5798 L 154.6158 20.5798 L 155.3063 22.933 C 155.7672 23.1953 156.6208 23.4887 157.7713 23.4887 C 159.579 23.4887 160.5644 22.7056 160.5644 21.3638 C 160.5644 20.0891 160.1044 19.5654 158.0349 19.0096 L 156.0954 18.52 C 152.9409 17.6698 151.3315 16.2309 151.3315 13.1917 C 151.3315 9.8576 153.6304 7.3392 158.7899 7.3392 C 160.9257 7.3392 163.0293 7.6667 164.4093 8.2219 L 164.4093 12.4722 L 161.2538 12.4722 L 160.7616 10.4129 C 160.3026 10.1836 159.6444 9.9538 158.5603 9.9538 C 156.8845 9.9538 155.8317 10.6417 155.8317 11.916 C 155.8317 13.1256 156.489 13.6483 158.6248 14.2051 L 160.7284 14.6948 C 164.1798 15.61 165.4611 17.2452 165.4611 19.9579 C 165.4611 23.5859 163.127 26.1704 157.5408 26.1704 C 155.57 26.1704 153.3355 25.7778 151.5932 25.0579 L 151.5932 25.0579 Z" fill="#47576c"/>
		<path d="M 166.8733 23.5548 L 168.9105 23.0311 L 168.9105 11.0007 L 166.676 10.4454 L 166.676 8.1889 L 173.774 7.3723 L 174.2662 7.6327 L 174.2662 23.0311 L 176.2722 23.5548 L 176.2722 25.7118 L 166.8733 25.7118 L 166.8733 23.5548 ZM 168.5491 2.6313 C 168.5491 1.0296 169.8637 -0.0819 171.4731 -0.0819 C 173.1158 -0.0819 174.3971 1.0296 174.3971 2.6313 C 174.3971 4.2991 173.1158 5.3785 171.4731 5.3785 C 169.8637 5.3785 168.5491 4.2991 168.5491 2.6313 L 168.5491 2.6313 Z" fill="#47576c"/>
		<path d="M 177.5203 23.5548 L 179.5888 23.0321 L 179.5888 11.0007 L 177.4539 10.445 L 177.4539 8.1894 L 184.255 7.3713 L 184.716 7.6331 L 184.716 9.6599 L 184.9132 9.6599 C 186.6223 8.2865 188.3958 7.3397 190.7612 7.3397 C 193.5562 7.3397 195.3962 8.647 195.3962 11.8504 L 195.3962 23.0321 L 197.367 23.5548 L 197.367 25.7118 L 188.3314 25.7118 L 188.3314 23.5548 L 190.0053 23.1292 L 190.0053 13.3549 C 190.0053 11.6546 189.2181 11.1314 187.6087 11.1314 C 186.5891 11.1314 185.8 11.3281 184.9464 11.6546 L 184.9464 23.1292 L 186.5891 23.5548 L 186.5891 25.7118 L 177.5203 25.7118 L 177.5203 23.5548 Z" fill="#47576c"/>
		<path d="M 198.746 16.6234 C 198.746 10.7729 202.295 7.3402 207.4554 7.3402 C 212.7779 7.3402 215.2761 10.2822 215.2761 17.3754 L 204.2677 17.3754 C 204.5294 21.462 206.3381 22.7697 209.3598 22.7697 C 211.6939 22.7697 213.1402 22.3111 214.4206 21.9196 L 214.4206 24.2408 C 213.1725 25.1249 211.1685 26.1373 207.9476 26.1373 C 201.8027 26.1373 198.746 22.6065 198.746 16.6234 L 198.746 16.6234 ZM 209.9516 14.9891 C 209.9516 11.0333 208.934 10.0204 207.3245 10.0204 C 205.6467 10.0204 204.4308 11.1639 204.2013 14.9891 L 209.9516 14.9891 Z" fill="#47576c"/>
		<path d="M 217.2801 25.0579 L 217.0164 20.5798 L 220.3008 20.5798 L 220.9932 22.933 C 221.4522 23.1953 222.3077 23.4887 223.4562 23.4887 C 225.2649 23.4887 226.2513 22.7056 226.2513 21.3638 C 226.2513 20.0891 225.7903 19.5654 223.7189 19.0096 L 221.7823 18.52 C 218.6259 17.6698 217.0164 16.2309 217.0164 13.1917 C 217.0164 9.8576 219.3173 7.3392 224.4758 7.3392 C 226.6126 7.3392 228.7152 7.6667 230.0942 8.2219 L 230.0942 12.4722 L 226.9407 12.4722 L 226.4485 10.4129 C 225.9876 10.1836 225.3313 9.9538 224.2453 9.9538 C 222.5694 9.9538 221.5186 10.6417 221.5186 11.916 C 221.5186 13.1256 222.1749 13.6483 224.3117 14.2051 L 226.4153 14.6948 C 229.8657 15.61 231.147 17.2452 231.147 19.9579 C 231.147 23.5859 228.8139 26.1704 223.2277 26.1704 C 221.2549 26.1704 219.0204 25.7778 217.2801 25.0579 L 217.2801 25.0579 Z" fill="#47576c"/>
		<path d="M 233.151 25.0579 L 232.8873 20.5798 L 236.1726 20.5798 L 236.8641 22.933 C 237.3241 23.1953 238.1786 23.4887 239.3281 23.4887 C 241.1358 23.4887 242.1212 22.7056 242.1212 21.3638 C 242.1212 20.0891 241.6622 19.5654 239.5908 19.0096 L 237.6522 18.52 C 234.4987 17.6698 232.8873 16.2309 232.8873 13.1917 C 232.8873 9.8576 235.1882 7.3392 240.3477 7.3392 C 242.4835 7.3392 244.5862 7.6667 245.9661 8.2219 L 245.9661 12.4722 L 242.8116 12.4722 L 242.3185 10.4129 C 241.8585 10.1836 241.2012 9.9538 240.1172 9.9538 C 238.4403 9.9538 237.3895 10.6417 237.3895 11.916 C 237.3895 13.1256 238.0468 13.6483 240.1826 14.2051 L 242.2862 14.6948 C 245.7356 15.61 247.0179 17.2452 247.0179 19.9579 C 247.0179 23.5859 244.6848 26.1704 239.0986 26.1704 C 237.1258 26.1704 234.8923 25.7778 233.151 25.0579 L 233.151 25.0579 Z" fill="#47576c"/>
		<path d="M 108.0881 51.2319 L 110.5843 50.6421 L 110.5843 32.9891 L 108.1526 32.3682 L 108.1526 30.014 L 119.5232 30.014 C 125.6691 30.014 128.2971 32.6296 128.2971 36.8794 C 128.2971 40.1158 126.1603 41.6849 123.8936 42.5681 L 123.8936 42.6983 L 128.5921 50.7412 L 130.1703 51.2319 L 130.1703 53.5851 L 123.6963 53.5851 L 118.3738 43.8098 L 116.5329 43.8098 L 116.5329 50.7082 L 118.5701 51.2319 L 118.5701 53.5851 L 108.0881 53.5851 L 108.0881 51.2319 ZM 118.8982 41.031 C 121.3964 41.031 122.3496 39.7563 122.3496 36.9454 C 122.3496 34.2318 121.2313 33.0221 118.8328 33.0221 L 116.4342 33.0221 L 116.4342 41.031 L 118.8982 41.031 Z" fill="#47576c"/>
		<path d="M 130.6625 44.4967 C 130.6625 38.6448 134.2105 35.2121 139.3699 35.2121 C 144.6935 35.2121 147.1906 38.1541 147.1906 45.2488 L 136.1813 45.2488 C 136.445 49.3353 138.2527 50.6421 141.2763 50.6421 C 143.6084 50.6421 145.0548 50.1855 146.3371 49.7929 L 146.3371 52.1141 C 145.087 52.9973 143.083 54.0097 139.8622 54.0097 C 133.7173 54.0097 130.6625 50.4789 130.6625 44.4967 L 130.6625 44.4967 ZM 141.8681 42.8625 C 141.8681 38.9061 140.8475 37.8927 139.2391 37.8927 C 137.5622 37.8927 136.3464 39.0373 136.1159 42.8625 L 141.8681 42.8625 Z" fill="#47576c"/>
		<path d="M 149.7533 38.2522 L 148.2747 37.7946 L 148.2747 35.6046 L 157.0818 35.6046 L 157.0818 37.7946 L 155.3727 38.1541 L 157.2458 43.7777 C 157.9353 45.9026 158.8221 50.0213 158.8221 50.0213 L 158.9539 50.0213 C 158.9539 50.0213 159.8417 45.9677 160.5644 43.7457 L 162.4375 38.1541 L 160.662 37.7946 L 160.662 35.6046 L 167.2014 35.6046 L 167.2014 37.7946 L 165.6584 38.2522 L 160.1034 53.5851 L 155.6022 53.5851 L 149.7533 38.2522 Z" fill="#47576c"/>
		<path d="M 168.2522 51.4272 L 170.2895 50.9045 L 170.2895 38.8731 L 168.055 38.3193 L 168.055 36.0622 L 175.153 35.2451 L 175.6452 35.5055 L 175.6452 50.9045 L 177.6512 51.4272 L 177.6512 53.5851 L 168.2522 53.5851 L 168.2522 51.4272 ZM 169.9281 30.5047 C 169.9281 28.9025 171.2426 27.791 172.8521 27.791 C 174.4967 27.791 175.778 28.9025 175.778 30.5047 C 175.778 32.1729 174.4967 33.2514 172.8521 33.2514 C 171.2426 33.2514 169.9281 32.1729 169.9281 30.5047 L 169.9281 30.5047 Z" fill="#47576c"/>
		<path d="M 179.0301 44.4967 C 179.0301 38.6448 182.5791 35.2121 187.7376 35.2121 C 193.0621 35.2121 195.5603 38.1541 195.5603 45.2488 L 184.5509 45.2488 C 184.8136 49.3353 186.6204 50.6421 189.644 50.6421 C 191.9761 50.6421 193.4234 50.1855 194.7047 49.7929 L 194.7047 52.1141 C 193.4566 52.9973 191.4526 54.0097 188.2318 54.0097 C 182.085 54.0097 179.0301 50.4789 179.0301 44.4967 L 179.0301 44.4967 ZM 190.2358 42.8625 C 190.2358 38.9061 189.2152 37.8927 187.6067 37.8927 C 185.9309 37.8927 184.715 39.0373 184.4855 42.8625 L 190.2358 42.8625 Z" fill="#47576c"/>
		<path d="M 198.0877 38.2192 L 196.6756 37.7626 L 196.6756 35.6046 L 205.0217 35.6046 L 205.0217 37.7626 L 203.4122 38.1871 L 204.5294 42.6002 C 205.1545 45.0525 205.7112 48.8777 205.7112 48.8777 L 205.844 48.8777 C 205.844 48.8777 206.4671 45.1837 207.1585 42.6983 L 209.1293 35.6046 L 212.9088 35.6046 L 214.9128 42.6983 C 215.5378 44.8893 216.2937 48.8777 216.2937 48.8777 L 216.4246 48.8777 C 216.4246 48.8777 217.0164 44.9213 217.575 42.6002 L 218.6923 38.1871 L 217.1473 37.7626 L 217.1473 35.6046 L 223.4894 35.6046 L 223.4894 37.7626 L 222.1085 38.2192 L 217.8387 53.5851 L 213.3365 53.5851 L 211.2993 46.2291 C 210.7075 44.0391 210.3129 40.998 210.3129 40.998 L 210.2133 40.998 C 210.2133 40.998 209.7211 44.0061 209.0961 46.2291 L 206.8948 53.5851 L 202.3584 53.5851 L 198.0877 38.2192 Z" fill="#47576c"/>
		<path d="M 245.8059 60.6904 L -0.0775 60.6904 L -0.0775 58.3877 L 245.8059 58.3877 L 245.8059 60.6904 Z" fill="#47576c"/>
		<g>
			<path d="M 10.9695 75.6643 L 8.7389 75.6643 L 6.9458 70.2185 L 5.1523 75.6643 L 2.9378 75.6643 L -0.119 64.6172 L 2.7352 64.6172 L 4.1854 70.4507 L 5.979 64.6172 L 7.9127 64.6172 L 9.7062 70.4507 L 11.1565 64.6172 L 14.0101 64.6172 L 10.9695 75.6643 Z" fill="#47576c"/>
			<path d="M 20.4714 75.6643 L 20.4714 71.2892 L 17.5709 71.2892 L 17.5709 75.6643 L 14.8417 75.6643 L 14.8417 64.6172 L 17.5709 64.6172 L 17.5709 68.8689 L 20.4714 68.8689 L 20.4714 64.6172 L 23.2005 64.6172 L 23.2005 75.6643 L 20.4714 75.6643 Z" fill="#47576c"/>
			<path d="M 25.1538 75.6643 L 25.1538 64.6172 L 32.7015 64.6172 L 32.7015 67.0374 L 27.8829 67.0374 L 27.8829 68.8845 L 31.9998 68.8845 L 31.9998 71.3047 L 27.8829 71.3047 L 27.8829 73.244 L 32.7015 73.244 L 32.7015 75.6643 L 25.1538 75.6643 Z" fill="#47576c"/>
			<path d="M 39.9568 75.6643 L 37.9918 71.5525 L 37.0718 71.5525 L 37.0718 75.6643 L 34.3427 75.6643 L 34.3427 64.6172 L 38.7404 64.6172 C 41.2044 64.6172 42.5301 66.3554 42.5301 68.1703 C 42.5301 69.6753 41.594 70.6217 40.721 71.056 L 43.1224 75.6643 L 39.9568 75.6643 ZM 38.6154 67.053 L 37.0718 67.053 L 37.0718 69.2877 L 38.6154 69.2877 C 39.364 69.2877 39.801 68.7446 39.801 68.1703 C 39.801 67.5961 39.364 67.053 38.6154 67.053 Z" fill="#47576c"/>
			<path d="M 44.2172 75.6643 L 44.2172 64.6172 L 51.7654 64.6172 L 51.7654 67.0374 L 46.9469 67.0374 L 46.9469 68.8845 L 51.0638 68.8845 L 51.0638 71.3047 L 46.9469 71.3047 L 46.9469 73.244 L 51.7654 73.244 L 51.7654 75.6643 L 44.2172 75.6643 Z" fill="#47576c"/>
			<path d="M 62.1869 75.6643 L 60.2219 71.5525 L 59.302 71.5525 L 59.302 75.6643 L 56.5723 75.6643 L 56.5723 64.6172 L 60.9705 64.6172 C 63.4345 64.6172 64.7602 66.3554 64.7602 68.1703 C 64.7602 69.6753 63.8242 70.6217 62.9511 71.056 L 65.3526 75.6643 L 62.1869 75.6643 ZM 60.8455 67.053 L 59.302 67.053 L 59.302 69.2877 L 60.8455 69.2877 C 61.5941 69.2877 62.0311 68.7446 62.0311 68.1703 C 62.0311 67.5961 61.5941 67.053 60.8455 67.053 Z" fill="#47576c"/>
			<path d="M 73.4037 74.547 C 72.6083 75.3388 71.6727 75.7576 70.3157 75.7576 C 68.9587 75.7576 68.0231 75.3388 67.2277 74.547 C 66.0894 73.415 66.0894 72.0023 66.0894 70.1407 C 66.0894 68.2792 66.0894 66.8674 67.2277 65.7345 C 68.0231 64.9436 68.9587 64.5239 70.3157 64.5239 C 71.6727 64.5239 72.6083 64.9436 73.4037 65.7345 C 74.542 66.8674 74.542 68.2792 74.542 70.1407 C 74.542 72.0023 74.542 73.415 73.4037 74.547 ZM 71.4075 67.4261 C 71.2044 67.1618 70.8148 66.9451 70.3157 66.9451 C 69.8167 66.9451 69.427 67.1618 69.2238 67.4261 C 68.9743 67.7516 68.8186 68.1237 68.8186 70.1407 C 68.8186 72.1578 68.9743 72.5144 69.2238 72.8408 C 69.427 73.1041 69.8167 73.3373 70.3157 73.3373 C 70.8148 73.3373 71.2044 73.1041 71.4075 72.8408 C 71.6571 72.5144 71.8128 72.1578 71.8128 70.1407 C 71.8128 68.1237 71.6571 67.7516 71.4075 67.4261 Z" fill="#47576c"/>
			<path d="M 83.7622 75.6643 L 83.7622 70.3739 L 82.1869 73.1041 L 80.4402 73.1041 L 78.8654 70.3739 L 78.8654 75.6643 L 76.1358 75.6643 L 76.1358 64.6172 L 78.8186 64.6172 L 81.3138 69.4888 L 83.8091 64.6172 L 86.4913 64.6172 L 86.4913 75.6643 L 83.7622 75.6643 Z" fill="#47576c"/>
			<path d="M 94.6524 75.6643 L 94.1377 74.0194 L 90.722 74.0194 L 90.1766 75.6643 L 87.3224 75.6643 L 91.3617 64.6172 L 93.4668 64.6172 L 97.506 75.6643 L 94.6524 75.6643 ZM 92.4843 68.8067 L 91.4862 71.7546 L 93.4204 71.7546 L 92.4843 68.8067 Z" fill="#47576c"/>
			<path d="M 104.6206 75.6643 L 101.0653 70.1096 L 101.0653 75.6643 L 98.3361 75.6643 L 98.3361 64.6172 L 100.722 64.6172 L 104.2778 70.1718 L 104.2778 64.6172 L 107.007 64.6172 L 107.007 75.6643 L 104.6206 75.6643 Z" fill="#47576c"/>
			<path d="M 108.9597 75.6643 L 108.9597 64.6172 L 111.6894 64.6172 L 111.6894 75.6643 L 108.9597 75.6643 Z" fill="#47576c"/>
			<path d="M 119.847 75.6643 L 119.3323 74.0194 L 115.9166 74.0194 L 115.3712 75.6643 L 112.517 75.6643 L 116.5563 64.6172 L 118.6614 64.6172 L 122.7007 75.6643 L 119.847 75.6643 ZM 117.6789 68.8067 L 116.6808 71.7546 L 118.615 71.7546 L 117.6789 68.8067 Z" fill="#47576c"/>
			<path d="M 131.5014 67.0374 L 131.5014 75.6643 L 128.7727 75.6643 L 128.7727 67.0374 L 126.0431 67.0374 L 126.0431 64.6172 L 134.231 64.6172 L 134.231 67.0374 L 131.5014 67.0374 Z" fill="#47576c"/>
			<path d="M 141.7343 75.6643 L 141.2197 74.0194 L 137.8044 74.0194 L 137.2585 75.6643 L 134.4048 75.6643 L 138.4441 64.6172 L 140.5497 64.6172 L 144.589 75.6643 L 141.7343 75.6643 ZM 139.5672 68.8067 L 138.5691 71.7546 L 140.5028 71.7546 L 139.5672 68.8067 Z" fill="#47576c"/>
			<path d="M 145.4191 75.6643 L 145.4191 64.6172 L 148.1477 64.6172 L 148.1477 73.244 L 152.8111 73.244 L 152.8111 75.6643 L 145.4191 75.6643 Z" fill="#47576c"/>
			<path d="M 160.2997 75.6643 L 157.742 71.1337 L 156.8064 72.2044 L 156.8064 75.6643 L 154.109 75.6643 L 154.109 64.6172 L 156.8064 64.6172 L 156.8064 68.5269 L 160.0194 64.6172 L 163.3565 64.6172 L 159.5672 69.0856 L 163.4815 75.6643 L 160.2997 75.6643 Z" fill="#47576c"/>
			<path d="M 167.4768 75.7576 C 165.7775 75.7576 164.3898 75.4467 163.2666 74.2992 L 165.0128 72.561 C 165.59 73.1352 166.6037 73.3373 167.4924 73.3373 C 168.5687 73.3373 169.0833 72.9798 169.0833 72.3443 C 169.0833 72.0801 169.0208 71.8634 168.8656 71.6924 C 168.7249 71.5525 168.4905 71.4437 168.1321 71.398 L 166.7912 71.2114 C 165.8088 71.0715 165.0597 70.7461 164.5607 70.234 C 164.046 69.7064 163.797 68.9622 163.797 68.0149 C 163.797 65.9978 165.3253 64.5239 167.8518 64.5239 C 169.4418 64.5239 170.643 64.897 171.5942 65.8433 L 169.8793 67.5495 C 169.3021 66.9762 168.6624 66.8985 167.7737 66.8985 C 166.8225 66.8985 166.4318 67.4416 166.4318 67.9226 C 166.4318 68.0615 166.4787 68.2636 166.6506 68.4346 C 166.7912 68.5735 167.0246 68.7135 167.4153 68.7601 L 168.7562 68.9466 C 169.7543 69.0856 170.4711 69.3965 170.9389 69.8619 C 171.5317 70.4361 171.7661 71.2581 171.7661 72.2822 C 171.7661 74.5314 169.8168 75.7576 167.4768 75.7576 Z" fill="#47576c"/>
			<path d="M 181.2666 75.6643 L 176.4323 75.6643 L 176.4323 64.6172 L 181.0332 64.6172 C 183.3409 64.6172 184.5724 65.9055 184.5724 67.8138 C 184.5724 69.07 183.6993 69.7686 183.3565 70.0008 C 183.8087 70.2807 184.7287 70.8549 184.7287 72.4065 C 184.7287 74.5159 183.2471 75.6643 181.2666 75.6643 ZM 180.8613 67.053 L 179.161 67.053 L 179.161 68.8534 L 180.8613 68.8534 C 181.6094 68.8534 181.8438 68.388 181.8438 67.9537 C 181.8438 67.5184 181.6094 67.053 180.8613 67.053 ZM 181.0019 71.2892 L 179.161 71.2892 L 179.161 73.2285 L 181.0019 73.2285 C 181.75 73.2285 182 72.7165 182 72.2511 C 182 71.7857 181.75 71.2892 181.0019 71.2892 Z" fill="#47576c"/>
			<path d="M 190.3315 75.7576 C 188.0228 75.7576 186.136 74.2059 186.136 71.7857 L 186.136 64.6172 L 188.8656 64.6172 L 188.8656 71.7235 C 188.8656 72.7476 189.4271 73.3373 190.3315 73.3373 C 191.2358 73.3373 191.8286 72.7476 191.8286 71.7235 L 191.8286 64.6172 L 194.5573 64.6172 L 194.5573 71.7857 C 194.5573 74.2059 192.6392 75.7576 190.3315 75.7576 Z" fill="#47576c"/>
			<path d="M 199.4892 75.7576 C 197.7899 75.7576 196.4021 75.4467 195.279 74.2992 L 197.0252 72.561 C 197.6024 73.1352 198.6161 73.3373 199.5048 73.3373 C 200.581 73.3373 201.0957 72.9798 201.0957 72.3443 C 201.0957 72.0801 201.0332 71.8634 200.8779 71.6924 C 200.7373 71.5525 200.5029 71.4437 200.1445 71.398 L 198.8036 71.2114 C 197.8211 71.0715 197.0721 70.7461 196.573 70.234 C 196.0583 69.7064 195.8093 68.9622 195.8093 68.0149 C 195.8093 65.9978 197.3377 64.5239 199.8642 64.5239 C 201.4541 64.5239 202.6553 64.897 203.6066 65.8433 L 201.8916 67.5495 C 201.3145 66.9762 200.6748 66.8985 199.7861 66.8985 C 198.8348 66.8985 198.4452 67.4416 198.4452 67.9226 C 198.4452 68.0615 198.4911 68.2636 198.6629 68.4346 C 198.8036 68.5735 199.037 68.7135 199.4276 68.7601 L 200.7685 68.9466 C 201.7666 69.0856 202.4835 69.3965 202.9512 69.8619 C 203.5441 70.4361 203.7784 71.2581 203.7784 72.2822 C 203.7784 74.5314 201.8291 75.7576 199.4892 75.7576 Z" fill="#47576c"/>
			<path d="M 205.2785 75.6643 L 205.2785 64.6172 L 208.0072 64.6172 L 208.0072 75.6643 L 205.2785 75.6643 Z" fill="#47576c"/>
			<path d="M 216.2429 75.6643 L 212.6871 70.1096 L 212.6871 75.6643 L 209.9584 75.6643 L 209.9584 64.6172 L 212.3443 64.6172 L 215.9001 70.1718 L 215.9001 64.6172 L 218.6288 64.6172 L 218.6288 75.6643 L 216.2429 75.6643 Z" fill="#47576c"/>
			<path d="M 220.582 75.6643 L 220.582 64.6172 L 228.1302 64.6172 L 228.1302 67.0374 L 223.3107 67.0374 L 223.3107 68.8845 L 227.4281 68.8845 L 227.4281 71.3047 L 223.3107 71.3047 L 223.3107 73.244 L 228.1302 73.244 L 228.1302 75.6643 L 220.582 75.6643 Z" fill="#47576c"/>
			<path d="M 232.9362 75.7576 C 231.2368 75.7576 229.8491 75.4467 228.726 74.2992 L 230.4722 72.561 C 231.0493 73.1352 232.0631 73.3373 232.9518 73.3373 C 234.028 73.3373 234.5427 72.9798 234.5427 72.3443 C 234.5427 72.0801 234.4802 71.8634 234.3249 71.6924 C 234.1843 71.5525 233.9499 71.4437 233.5915 71.398 L 232.2506 71.2114 C 231.2681 71.0715 230.519 70.7461 230.02 70.234 C 229.5053 69.7064 229.2563 68.9622 229.2563 68.0149 C 229.2563 65.9978 230.7847 64.5239 233.3112 64.5239 C 234.9011 64.5239 236.1023 64.897 237.0535 65.8433 L 235.3386 67.5495 C 234.7614 66.9762 234.1218 66.8985 233.233 66.8985 C 232.2818 66.8985 231.8922 67.4416 231.8922 67.9226 C 231.8922 68.0615 231.938 68.2636 232.1099 68.4346 C 232.2506 68.5735 232.484 68.7135 232.8746 68.7601 L 234.2155 68.9466 C 235.2136 69.0856 235.9305 69.3965 236.3982 69.8619 C 236.991 70.4361 237.2254 71.2581 237.2254 72.2822 C 237.2254 74.5314 235.2761 75.7576 232.9362 75.7576 Z" fill="#47576c"/>
			<path d="M 241.8907 75.7576 C 240.1914 75.7576 238.8036 75.4467 237.6805 74.2992 L 239.4267 72.561 C 240.0039 73.1352 241.0176 73.3373 241.9063 73.3373 C 242.9826 73.3373 243.4972 72.9798 243.4972 72.3443 C 243.4972 72.0801 243.4347 71.8634 243.2794 71.6924 C 243.1388 71.5525 242.9044 71.4437 242.546 71.398 L 241.2051 71.2114 C 240.2227 71.0715 239.4736 70.7461 238.9745 70.234 C 238.4599 69.7064 238.2108 68.9622 238.2108 68.0149 C 238.2108 65.9978 239.7392 64.5239 242.2657 64.5239 C 243.8557 64.5239 245.0569 64.897 246.0081 65.8433 L 244.2932 67.5495 C 243.716 66.9762 243.0763 66.8985 242.1876 66.8985 C 241.2364 66.8985 240.8457 67.4416 240.8457 67.9226 C 240.8457 68.0615 240.8926 68.2636 241.0645 68.4346 C 241.2051 68.5735 241.4385 68.7135 241.8292 68.7601 L 243.1701 68.9466 C 244.1682 69.0856 244.885 69.3965 245.3528 69.8619 C 245.9456 70.4361 246.18 71.2581 246.18 72.2822 C 246.18 74.5314 244.2307 75.7576 241.8907 75.7576 Z" fill="#47576c"/>
		</g>
	</g>
</svg>